<svg enable-background="new 0 0 316.978 125.832" viewBox="0 0 316.978 125.832" preserveAspectRatio="none" xmlns="http://www.w3.org/2000/svg"><g fill="#231f20"><path d="m109.593 124.916h-2.969v-84.021l-45.277 45.277-45.487-45.488v84.232h-2.969v-91.399l48.456 48.457 48.246-48.246z"/><path d="m96.074 124.975h-2.969v-50.59l-31.854 31.854-31.907-31.907v50.643h-2.969v-57.81l34.876 34.876 34.823-34.823z"/><path d="m82.824 124.975h-2.969v-19.288l-18.543 18.543-18.716-18.716v19.461h-2.969v-26.629l21.685 21.686 21.512-21.512z"/><path d="m278.695 2.572h-4.198l-39.648 39.647-39.646-39.647h-4.198l43.844 43.846z"/><path d="m259.728 2.572h-4.199l-20.679 20.68-20.68-20.68h-4.199l24.879 24.878z"/><path d="m191.494 124.916h4.199l39.407-39.409 39.408 39.409h4.199l-43.607-43.607z"/><path d="m210.461 124.916h4.199l20.44-20.441 20.441 20.441h4.198l-24.639-24.64z"/><path d="m298.365 2.572h-4.198l-59.192 59.192-59.192-59.192h-4.199l61.292 61.291-61.053 61.053h4.199l58.953-58.953 58.953 58.953h4.198l-61.052-61.053z"/><path d="m173.961 20.42v4.198l39.369 39.369-39.369 39.37v4.199l43.567-43.569z"/><path d="m173.961 39.386v4.198l20.402 20.404-20.402 20.403v4.199l24.601-24.602z"/><path d="m256.619 63.738 39.864-39.863v-4.198l-44.062 44.061 44.062 44.062v-4.198z"/><path d="m275.586 63.738 20.897-20.897v-4.198l-25.096 25.095 25.096 25.095v-4.198z"/><path d="m61.185 42.219-39.743-39.745h-4.199l43.942 43.943 43.943-43.943h-4.198z"/><path d="m86.161 2.475h-4.198l-20.777 20.777-20.777-20.777h-4.198l24.975 24.975z"/><path d="m133.288 2.475h2.969v122.471h-2.969z"/><path d="m146.76 2.475h2.969v122.471h-2.969z"/><path d="m160.23 2.475h2.969v122.471h-2.969z"/></g><path d="m313.484 123.748c.477-.068.834-.201 1.07-.398.431-.362.645-.982.645-1.86 0-.526-.057-.954-.17-1.282-.217-.622-.622-.933-1.212-.933-.345 0-.611.152-.801.457-.185.305-.347.789-.489 1.451l-.248 1.132c-.246 1.112-.512 1.876-.802 2.292-.482.704-1.236 1.057-2.261 1.057-.935 0-1.713-.345-2.332-1.034-.619-.688-.928-1.701-.928-3.035 0-1.115.291-2.066.875-2.853.583-.786 1.43-1.2 2.542-1.238v2.098c-.629.039-1.076.319-1.34.842-.175.35-.262.784-.262 1.302 0 .576.113 1.037.339 1.382.227.343.544.516.95.516.374 0 .652-.171.837-.509.123-.219.268-.681.432-1.389l.433-1.834c.189-.803.441-1.405.758-1.807.491-.624 1.203-.934 2.134-.934.955 0 1.747.369 2.379 1.106.631.738.946 1.781.946 3.128 0 1.376-.31 2.457-.932 3.245-.621.789-1.476 1.183-2.563 1.183z" fill="#d9812d"/><path d="m306.26 93.963h1.85v3.127h8.599v2.197h-8.599v3.14h-1.85z" fill="#d9812d"/><path d="m306.26 78.604v-2.218h6.417c.718 0 1.242-.085 1.573-.255.586-.263.878-.838.878-1.723 0-.881-.292-1.453-.878-1.716-.331-.17-.855-.255-1.573-.255h-6.417v-2.218h6.422c1.111 0 1.976.172 2.595.516 1.134.642 1.701 1.866 1.701 3.673s-.567 3.034-1.701 3.68c-.619.345-1.484.517-2.595.517h-6.422" fill="#d9812d"/><path d="m306.487 47.914c.241-.733.683-1.327 1.326-1.781.52-.365 1.083-.613 1.688-.745.605-.133 1.181-.199 1.729-.199 1.389 0 2.566.28 3.531.837 1.3.757 1.949 1.925 1.949 3.505v4.505h-10.45v-4.505c.009-.648.085-1.187.227-1.617m1.588 4.003h6.82v-2.017c0-1.032-.508-1.752-1.524-2.158-.558-.223-1.222-.334-1.992-.334-1.063 0-1.88.166-2.449.5s-.854.998-.854 1.991v2.018z" fill="#d9812d"/><path d="m306.26 27.477h10.449v2.169h-10.449z" fill="#d9812d"/><path d="m315.78 3.305c.813.789 1.22 1.93 1.22 3.424s-.406 2.635-1.22 3.425c-.997 1.058-2.434 1.587-4.31 1.587-1.914 0-3.351-.529-4.31-1.587-.813-.789-1.22-1.93-1.22-3.425 0-1.494.406-2.635 1.22-3.424.959-1.054 2.396-1.581 4.31-1.581 1.876 0 3.313.527 4.31 1.581m-1.588 1.365c-.638-.508-1.545-.762-2.722-.762-1.172 0-2.079.254-2.719.762s-.96 1.195-.96 2.059c0 .865.318 1.555.956 2.071.638.515 1.545.773 2.723.773 1.177 0 2.084-.257 2.722-.773.638-.515.957-1.206.957-2.071.001-.864-.318-1.551-.957-2.059z" fill="#d9812d"/><path d="m61.186 61.186-61.186-61.186v124.975h2.969v-117.808l58.217 58.217 58.216-58.217v117.808h2.969v-124.975z" fill="#231f20"/></svg>