<svg enable-background="new 0 0 24 24" viewBox="0 0 24 24" preserveAspectRatio="none" xmlns="http://www.w3.org/2000/svg"><path d="m13.313 8.319v1.665h2.516l-.328 2.608h-2.188v6.691h-2.625v-6.691h-2.194v-2.608h2.194v-1.923c0-2.232 1.329-3.447 3.269-3.447.929 0 1.728.071 1.96.103v2.332l-1.345.001c-1.055 0-1.259.514-1.259 1.269z" fill="#000" opacity=".8"/><path d="m17 24h-10c-3.86 0-7-3.141-7-7v-10c0-3.86 3.14-7 7-7h10c3.859 0 7 3.14 7 7v10c0 3.859-3.141 7-7 7zm-10-22c-2.757 0-5 2.243-5 5v10c0 2.757 2.243 5 5 5h10c2.757 0 5-2.243 5-5v-10c0-2.757-2.243-5-5-5z" fill="#000" opacity=".8"/></svg>