<svg enable-background="new 0 0 24 24" viewBox="0 0 24 24" preserveAspectRatio="none" xmlns="http://www.w3.org/2000/svg"><g fill="#000"><path d="m17 24h-10c-3.86 0-7-3.141-7-7v-10c0-3.86 3.14-7 7-7h10c3.859 0 7 3.14 7 7v10c0 3.859-3.141 7-7 7zm-10-22c-2.757 0-5 2.243-5 5v10c0 2.757 2.243 5 5 5h10c2.757 0 5-2.243 5-5v-10c0-2.757-2.243-5-5-5z" opacity=".8"/><path d="m12 5.836c-3.404 0-6.163 2.76-6.163 6.164s2.759 6.163 6.163 6.163 6.164-2.759 6.164-6.163-2.76-6.164-6.164-6.164zm0 10.164c-2.209 0-4-1.791-4-4s1.791-4.001 4-4.001 4.001 1.792 4.001 4.001-1.792 4-4.001 4z" opacity=".8"/><circle cx="18.484" cy="5.593" opacity=".8" r="1.44"/></g></svg>