<svg height="18" width="25" xmlns="http://www.w3.org/2000/svg" preserveAspectRatio="none"><path d="m21.875 18h-18.75c-1.718 0-3.125-1.41-3.125-3.13v-11.739c0-1.721 1.407-3.131 3.125-3.131h18.75c1.718 0 3.125 1.41 3.125 3.131v11.739c0 1.72-1.407 3.13-3.125 3.13zm1.563-14.869c0-.881-.684-1.566-1.563-1.566h-18.75c-.879 0-1.562.685-1.562 1.566v11.739c0 .88.683 1.565 1.562 1.565h18.75c.879 0 1.563-.685 1.563-1.565zm-6.91 6.016 3.919 3.57c.002.002.004.004.005.006.319.291.341.787.05 1.106-.291.32-.786.342-1.105.05l-3.979-3.619-1.185 1.173c-.958.95-2.521.952-3.479 0l-1.184-1.173-3.967 3.619c-.002.002-.004.003-.005.005-.322.289-.817.262-1.105-.06s-.261-.818.06-1.107l3.907-3.558-3.931-3.913c-.136-.129-.22-.304-.238-.49-.042-.43.272-.813.702-.855.236-.023.469.062.635.232l6.225 6.188c.287.285.982.285 1.27 0l6.25-6.188c.007-.007.015-.015.022-.022.313-.298.808-.285 1.105.028.297.314.284.809-.029 1.107z" fill="#e56b36" fill-rule="evenodd"/></svg>