<svg xmlns="http://www.w3.org/2000/svg" width="28.3" height="20.3" preserveAspectRatio="none"><path fill-rule="evenodd" stroke="#E56B36" stroke-width=".2" fill="#E56B36" d="M3.584 17.647h1.127V19.1h1.445v-1.453h15.888V19.1h1.445v-1.453h1.127a2.491 2.491 0 0 0 2.484-2.498c0-.959-.549-1.859-1.415-2.266L14.822 7.741V5.998c0-.03.058-.088.087-.088 1.444-.435 2.311-1.859 2.022-3.37A2.92 2.92 0 0 0 14.678.274a2.85 2.85 0 0 0-2.398.61 2.83 2.83 0 0 0-1.069 2.237h1.445c0-.435.202-.842.52-1.133.346-.29.78-.377 1.213-.29a1.5 1.5 0 0 1 1.127 1.133c.144.755-.289 1.482-1.012 1.685-.664.203-1.126.784-1.126 1.482v1.743L2.516 12.883C1.649 13.29 1.1 14.19 1.1 15.149c0 1.365 1.127 2.498 2.484 2.498zm-.433-3.457L14.1 9.019l10.949 5.171c.375.175.607.552.607.959a1.04 1.04 0 0 1-1.04 1.046h-1.127v-.726h-1.445v.726H6.156v-.726H4.711v.726H3.584a1.04 1.04 0 0 1-1.04-1.046c0-.407.232-.784.607-.959z"/></svg>