<svg xmlns="http://www.w3.org/2000/svg" width="24" height="19" preserveAspectRatio="none"><path fill-rule="evenodd" fill="#E56B36" d="M16.575 16.31c-.689 0-1.381.672-1.381 1.345 0 .672.692 1.345 1.381 1.345.69 0 1.382-.673 1.382-1.345 0-.673-.692-1.345-1.382-1.345zm-8.461 0c-.689 0-1.379.672-1.379 1.345 0 .672.69 1.345 1.379 1.345.692 0 1.382-.673 1.382-1.345 0-.673-.69-1.345-1.382-1.345zM6.216 6.053h15.366l-1.554 4.372H6.216V6.053zm15.194 6.052L24 4.371H6.216V.841L5.181 0H0v1.681h4.489v12.948l.864.839h14.158l.862-1.68H6.216v-1.683H21.41z"/></svg>