<svg xmlns="http://www.w3.org/2000/svg" width="24.9" height="19.9" preserveAspectRatio="none"><path fill-rule="evenodd" stroke="#E56B36" stroke-width=".6" fill="#E56B36" d="M23.159 8.974c-.131 1.421-.551 3.476-1.807 5.202-1.257 1.726-3.081 2.752-4.39 3.31-1.408.6-2.518.798-2.565.806a.51.51 0 0 1-.589-.416.51.51 0 0 1 .415-.591c.04-.007 4.158-.763 6.305-3.712 1.684-2.312 1.719-5.355 1.652-6.594-.965.253-3.026.928-4.665 2.386a.509.509 0 0 1-.72-.043.513.513 0 0 1 .043-.722c2.43-2.162 5.58-2.731 5.713-2.754l.52-.091.072.524c.007.047.157 1.168.016 2.695zm-10.492 8.475l-.367.381-.366-.381c-.033-.034-.814-.85-1.598-2.167-.729-1.224-1.599-3.133-1.599-5.269 0-2.137.87-4.045 1.599-5.27.785-1.317 1.565-3.028 1.598-3.062L12.3 1.3l.367.381c.033.034.813 1.745 1.598 3.062.729 1.224 1.599 3.132 1.599 5.269s-.87 4.045-1.599 5.27c-.785 1.317-1.565 2.133-1.598 2.167zm-.366-14.633c-.782.962-2.544 4.342-2.544 7.196 0 2.863 1.76 5.342 2.543 6.302.782-.962 2.544-3.447 2.544-6.302 0-2.862-1.761-6.236-2.543-7.196zM7.085 9.365c-1.643-1.462-3.7-2.134-4.664-2.386-.066 1.239-.028 4.288 1.651 6.594 2.153 2.958 6.265 3.705 6.306 3.712a.511.511 0 0 1-.175 1.007c-.047-.008-1.157-.206-2.565-.805-1.309-.558-3.133-1.585-4.39-3.311-1.256-1.726-1.676-3.781-1.807-5.201-.141-1.528.01-2.648.016-2.695l.072-.525.521.091c.133.023 3.283.593 5.712 2.754.211.188.23.511.043.722a.508.508 0 0 1-.72.043z"/></svg>