<svg xmlns="http://www.w3.org/2000/svg" width="27.3" height="18.3" preserveAspectRatio="none"><path fill-rule="evenodd" stroke="#E56B36" stroke-width=".2" fill="#E56B36" d="M22.28 1.12H7.921a4.103 4.103 0 0 0-3.774 2.443L1.693 9.202a3.285 3.285 0 0 0-.593 1.883c0 1.849 1.539 3.357 3.425 3.357h14.559c1.14 0 2.066-.908 2.066-2.025s-.926-2.024-2.066-2.024H4.331a.694.694 0 0 0-.702.687c0 .381.314.688.702.688h14.753a.65.65 0 0 1 .657.644.65.65 0 0 1-.657.644H4.525c-1.115 0-2.021-.888-2.021-1.98 0-1.093.906-1.981 2.021-1.981h14.559c1.867 0 3.386 1.488 3.386 3.317 0 1.829-1.519 3.312-3.386 3.312H3.166a.695.695 0 0 0-.702.688c0 .381.314.688.702.688h15.923c2.181 0 4.023-1.439 4.6-3.395l2.49-7.307c.921-2.669-1.2-5.298-3.899-5.278zm2.56 4.848l-1.479 4.347a4.795 4.795 0 0 0-4.272-2.586H4.525c-.238 0-.472.025-.697.069L5.437 4.1a2.692 2.692 0 0 1 2.479-1.605h5.074v1.098c0 .38.313.687.702.687a.694.694 0 0 0 .702-.687V2.495h1.404v.751c0 .381.313.688.702.688a.694.694 0 0 0 .702-.688v-.751h5.073c2.151.034 3.097 2.127 2.565 3.473z"/></svg>